<svg xmlns="http://www.w3.org/2000/svg" viewBox="0 0 1024 1024"><path fill="#2563EB" d="M197.716 318.676C204.9 317.331 222.836 318.285 231.171 318.312L290.287 318.352L487.075 318.399L661.024 318.303L714.875 318.284C724.076 318.285 734.266 317.94 743.38 318.651C764.548 320.723 781.566 333.156 793.413 350.043C808.345 371.328 803.52 389.559 805.397 412.876C830.774 403.865 854.475 409.074 873.471 428.02C895.814 450.304 891.819 475.852 891.761 504.501L891.918 571.988L891.923 716.949C891.934 742.532 892.178 768.229 891.875 793.809C891.44 830.46 862.209 855.614 826.081 854.575C801.152 854.015 779.101 838.265 770.484 814.865C764.834 799.837 766.482 777.2 766.504 760.729L766.514 717.443L766.51 489.162L766.578 416.965C766.569 409.003 766.55 401.037 766.513 393.076C766.466 382.971 766.924 373.242 759.255 365.358C754.418 360.466 748.032 357.407 741.189 356.704C736.662 356.198 728.797 356.405 724.02 356.409L695.081 356.378L596.703 356.226L270.375 356.364L225.448 356.25C219.365 356.242 204.836 355.892 199.441 357.075C190.243 359.055 182.216 364.624 177.141 372.546C174.572 376.576 172.387 382.08 172.203 386.861C171.803 397.234 171.94 407.826 171.94 418.215L171.961 474.138L171.968 644.259L171.996 743.908C171.997 757.88 170.191 784.81 174.868 796.988C183.746 820.103 212.814 816.117 233.306 816.111L295.931 816.101L579.762 816.108L671.865 816.141C686.384 816.147 701.209 815.924 715.684 816.19C725.035 816.362 733.968 822.291 735.59 832.011C737.178 841.524 729.869 852.696 719.879 854.093C711.985 854.87 703.248 854.5 695.26 854.474L649.268 854.393L489.142 854.364L295.672 854.436L232.781 854.487C222.816 854.485 207.136 854.925 197.44 854.003C184.907 852.921 172.914 848.41 162.776 840.964C148.864 830.592 136.472 813.916 134.256 796.401C133.187 787.956 133.481 778.34 133.497 769.732L133.417 735.383L133.486 605.961L133.547 453.249L133.421 409.966C133.388 404.438 133.599 398.375 133.415 392.943C132.129 355.055 160.577 323.318 197.716 318.676ZM832.281 816.993C845.864 813.23 853.037 805.289 853.268 790.903C853.57 772.131 853.459 753.367 853.455 734.593L853.237 620.369L853.446 520.485C853.451 501.525 854.603 480.627 851.629 462.096C850.139 452.811 835.063 447.337 826.38 447.676C819.395 448.591 814.695 450.931 810.146 456.615C803.904 464.415 805.474 476.581 805.41 486.235L805.187 517.382C805.329 552.209 805.292 587.037 805.074 621.864L805.429 738.172L805.447 774.004C805.453 786.965 802.877 803.994 814.235 812.478C819.085 816.1 826.3 817.798 832.281 816.993Z"/><path fill="#2563EB" d="M588.984 168.253L697.695 168.193L727.598 168.176C735.529 168.173 744.352 167.849 752.211 169.284C778.631 174.107 801.778 199.142 803.89 226.024C804.731 236.731 803.848 248.057 804.09 258.822C804.153 261.649 803.939 264.723 803.384 267.491C799.996 286.998 772.74 289.682 766.465 270.748C764.981 265.47 765.936 260.086 765.563 254.733C764.597 240.854 769.428 223.361 758.342 212.505C756.158 210.367 752.133 208.102 749.208 207.86C740.035 207.102 730.643 207.464 721.43 207.47L669.566 207.479L574.138 207.442C556.775 207.418 539.353 207.254 521.998 207.441C518.302 207.735 511.558 207.694 508.155 209.228C498.266 213.686 493.992 225.666 489.663 234.561C485.464 243.072 481.321 251.611 477.235 260.177C472.822 269.662 468.912 281.661 457.342 282.889C447.679 283.915 436.045 283.408 426.25 283.363L236.287 283.345L182.166 283.422C172.357 283.48 161.544 284.046 151.832 283.312C127.62 281.482 128.093 245.814 152.332 244.298C162.696 243.65 173.14 243.949 183.51 243.948L243.861 243.958L441.369 244.011C447.189 231.236 466.291 196.579 475.805 187.054C496.837 165.996 518.396 168.284 545.036 168.267L588.984 168.253Z"/></svg>
